<?xml version="1.0" standalone="no"?>
<!DOCTYPE svg PUBLIC "-//W3C//DTD SVG 20010904//EN"
 "http://www.w3.org/TR/2001/REC-SVG-20010904/DTD/svg10.dtd">
<svg version="1.0" xmlns="http://www.w3.org/2000/svg"
 width="700.000000pt" height="700.000000pt" viewBox="0 0 700.000000 700.000000"
 preserveAspectRatio="xMidYMid meet">
<metadata>
Created by potrace 1.14, written by Peter Selinger 2001-2017
</metadata>
<g transform="translate(0.000000,700.000000) scale(0.100000,-0.100000)"
fill="#000000" stroke="none">
<path d="M4325 6983 c-42 -22 -111 -79 -159 -132 -23 -24 -46 -49 -51 -55 -27
-29 -80 -103 -163 -226 -185 -275 -221 -282 -522 -91 -123 79 -168 100 -287
140 -87 29 -285 78 -344 86 -17 2 -42 6 -57 9 -55 11 -220 33 -307 42 -38 3
-78 8 -87 10 -45 8 -311 19 -473 19 -160 0 -322 -8 -380 -19 -11 -2 -38 -6
-60 -10 -77 -13 -173 -47 -198 -70 -23 -21 -24 -27 -15 -74 28 -157 250 -580
441 -842 88 -121 197 -230 230 -230 35 0 169 -85 362 -229 250 -187 324 -269
325 -356 0 -63 -33 -153 -125 -339 -127 -257 -204 -502 -230 -726 -3 -30 -8
-66 -10 -80 -19 -112 -26 -509 -12 -690 6 -83 24 -234 43 -365 10 -72 54 -278
80 -371 98 -367 243 -682 413 -898 77 -97 277 -299 290 -292 16 10 13 51 -9
136 -11 41 -23 86 -25 100 -14 75 -129 428 -278 851 -91 259 -154 511 -172
689 -3 36 -8 72 -10 80 -21 78 -22 584 -1 696 2 10 7 50 11 89 4 38 8 72 10
76 2 3 7 28 11 55 3 27 8 52 10 55 2 4 6 23 10 43 8 56 71 271 100 345 74 184
128 279 282 494 192 266 235 347 211 401 -23 51 -77 72 -310 121 -87 19 -202
51 -256 71 -497 185 -1000 613 -1005 856 -3 105 79 158 297 192 136 22 546 22
715 1 131 -16 255 -52 360 -105 135 -68 236 -151 513 -423 333 -327 406 -367
434 -237 2 8 6 62 9 120 11 228 96 394 314 609 213 210 299 365 246 446 -28
42 -117 57 -171 28z"/>
</g>
</svg>
